<svg xmlns="http://www.w3.org/2000/svg" width="256" height="256" viewBox="0 0 100 100"><rect width="100" height="100" rx="20" fill="#16152c"></rect><path d="M33.56 51.11L33.56 50.06L39.92 50.06Q41.37 50.06 42.38 49.12Q43.38 48.18 43.38 46.46L43.38 46.46Q43.38 45.18 42.32 44.16Q41.27 43.14 39.92 43.14L39.92 43.14L30.87 43.14L30.87 62.13L29.81 62.13L29.81 42.09L39.92 42.09Q41.71 42.09 43.07 43.42Q44.43 44.74 44.43 46.46L44.43 46.46Q44.43 48.56 43.12 49.84Q41.80 51.11 39.92 51.11L39.92 51.11L33.56 51.11ZM33.56 53.22L33.56 52.17L39.92 52.17Q42.21 52.17 43.85 50.56Q45.49 48.96 45.49 46.46L45.49 46.46Q45.49 44.30 43.81 42.67Q42.13 41.04 39.92 41.04L39.92 41.04L28.76 41.04L28.76 62.13L27.71 62.13L27.71 39.98L39.92 39.98Q41.67 39.98 43.20 40.87Q44.73 41.77 45.63 43.27Q46.54 44.77 46.54 46.46L46.54 46.46Q46.54 49.34 44.59 51.28Q42.63 53.22 39.92 53.22L39.92 53.22L33.56 53.22ZM33.56 55.33L33.56 54.28L39.92 54.28Q41.97 54.28 43.73 53.27Q45.49 52.26 46.54 50.45Q47.60 48.64 47.60 46.46L47.60 46.46Q47.60 44.48 46.55 42.74Q45.50 41.01 43.73 39.97Q41.96 38.93 39.92 38.93L39.92 38.93L26.65 38.93L26.65 62.13L25.60 62.13L25.60 37.87L39.92 37.87Q42.22 37.87 44.24 39.05Q46.26 40.23 47.46 42.21Q48.65 44.20 48.65 46.46L48.65 46.46Q48.65 49.06 47.53 51.04Q46.41 53.02 44.49 54.13L44.49 54.13L47.22 62.13L46.10 62.13L43.50 54.63Q42.91 54.86 42.60 54.95L42.60 54.95L45.05 62.13L43.94 62.13L41.55 55.20Q41.42 55.23 40.61 55.30L40.61 55.30L42.88 62.13L41.77 62.13L39.53 55.33L38.57 55.33L40.71 62.13L39.60 62.13L37.45 55.33L33.56 55.33ZM32.98 45.25L32.98 62.13L31.92 62.13L31.92 44.20L39.92 44.20Q40.90 44.20 41.61 44.87Q42.32 45.53 42.32 46.46L42.32 46.46Q42.32 49.00 39.92 49.00L39.92 49.00L33.56 49.00L33.56 47.95L39.92 47.95Q40.55 47.95 40.91 47.62Q41.27 47.29 41.27 46.46L41.27 46.46Q41.27 45.94 40.88 45.60Q40.49 45.25 39.92 45.25L39.92 45.25L32.98 45.25ZM67.02 53.68L67.02 53.68Q67.02 53.11 66.68 52.92Q66.33 52.72 65.67 52.72L65.67 52.72L58.88 52.72L58.88 51.67L65.67 51.67Q68.08 51.67 68.08 53.68L68.08 53.68Q68.08 54.80 67.42 55.30Q66.76 55.80 65.67 55.80L65.67 55.80L58.88 55.80L58.88 54.75L65.67 54.75Q67.02 54.75 67.02 53.68ZM58.29 45.25L58.29 62.13L57.24 62.13L57.24 44.20L65.67 44.20Q66.67 44.20 67.37 44.81Q68.08 45.42 68.08 46.32L68.08 46.32Q68.08 47.52 67.42 48.06Q66.76 48.59 65.67 48.59L65.67 48.59L58.88 48.59L58.88 47.54L65.67 47.54Q67.02 47.54 67.02 46.32L67.02 46.32Q67.02 45.83 66.64 45.54Q66.26 45.25 65.67 45.25L65.67 45.25L58.29 45.25ZM58.88 50.70L58.88 49.65L65.67 49.65Q67.12 49.65 68.13 48.78Q69.13 47.91 69.13 46.32L69.13 46.32Q69.13 45.05 68.08 44.10Q67.04 43.14 65.67 43.14L65.67 43.14L56.18 43.14L56.18 62.13L55.13 62.13L55.13 42.09L65.67 42.09Q67.48 42.09 68.83 43.36Q70.19 44.62 70.19 46.32L70.19 46.32Q70.19 47.66 69.56 48.65Q68.94 49.65 67.89 50.19L67.89 50.19Q70.19 51.01 70.19 53.53L70.19 53.53Q70.19 55.52 68.87 56.72Q67.55 57.91 65.67 57.91L65.67 57.91L58.88 57.91L58.88 56.86L65.67 56.86Q67.12 56.86 68.13 55.98Q69.13 55.11 69.13 53.53L69.13 53.53Q69.13 52.46 68.37 51.64Q67.61 50.82 66.13 50.69L66.13 50.69Q65.98 50.70 65.67 50.70L65.67 50.70L58.88 50.70ZM72.29 46.32L72.29 46.32Q72.29 48.37 70.84 50.03L70.84 50.03Q72.29 51.64 72.29 53.53L72.29 53.53Q72.29 55.36 71.38 56.86Q70.46 58.36 68.95 59.19Q67.43 60.02 65.67 60.02L65.67 60.02L58.88 60.02L58.88 58.96L65.67 58.96Q67.96 58.96 69.60 57.43Q71.24 55.90 71.24 53.53L71.24 53.53Q71.24 52.68 70.81 51.65Q70.38 50.62 69.61 50.07L69.61 50.07Q71.24 48.55 71.24 46.32L71.24 46.32Q71.24 44.18 69.57 42.61Q67.90 41.04 65.67 41.04L65.67 41.04L54.07 41.04L54.07 62.13L53.02 62.13L53.02 39.98L65.67 39.98Q67.42 39.98 68.95 40.84Q70.48 41.69 71.39 43.17Q72.29 44.64 72.29 46.32ZM72.05 50.09L72.05 50.09Q73.35 48.34 73.35 46.32L73.35 46.32Q73.35 44.35 72.30 42.64Q71.25 40.93 69.48 39.93Q67.71 38.93 65.67 38.93L65.67 38.93L51.96 38.93L51.96 62.13L50.91 62.13L50.91 37.87L65.67 37.87Q67.99 37.87 70.00 39.01Q72.02 40.16 73.21 42.11Q74.40 44.07 74.40 46.32L74.40 46.32Q74.40 48.48 73.19 50.10L73.19 50.10Q74.40 51.79 74.40 53.53L74.40 53.53Q74.40 55.49 73.70 57.13Q73.00 58.76 71.80 59.84Q70.61 60.93 69.03 61.53Q67.45 62.13 65.67 62.13L65.67 62.13L58.88 62.13L58.88 61.07L65.67 61.07Q67.21 61.07 68.62 60.50Q70.02 59.92 71.06 58.92Q72.10 57.92 72.73 56.52Q73.35 55.11 73.35 53.53L73.35 53.53Q73.35 52.83 73.02 51.84Q72.69 50.85 72.05 50.09Z" fill="#fff"></path></svg>